# xmcd
#
# Track frame offsets:
#	150
#	14701
#	28149
#	43412
#	56615
#	73400
#	92555
#	106337
#	128700
#	141949
#	153345
#	165845
#	181932
#	198762
#
# Disc length: 3062 seconds
#
# Revision: 1
# Processed by: cddbd v1.5.2PL0 Copyright (c) Steve Scherf et al.
# Submitted via: audiograbber 1.83.01
#
DISCID=c10bf40e
DTITLE=Feldberger - Die Spass GmbH
DYEAR=1900
DGENRE=
TTITLE0=so schön
TTITLE1=wenn die frauen
TTITLE2=heut steigt die party
TTITLE3=ja in der nacht
TTITLE4=sonne liebe spass
TTITLE5=so ein starkes gfühl
TTITLE6=Die Spass GmbH
TTITLE7=stürmische zeiten
TTITLE8=seid ihr klar
TTITLE9=es ist halt wie immer
TTITLE10=über nacht hats gschneit
TTITLE11=alles was wir tun
TTITLE12=apres gipfelparty dance ski
TTITLE13=hans.dschei.wi.oh.dschi.ti.spass....
EXTD=
EXTT0=
EXTT1=
EXTT2=
EXTT3=
EXTT4=
EXTT5=
EXTT6=
EXTT7=
EXTT8=
EXTT9=
EXTT10=
EXTT11=
EXTT12=
EXTT13=
PLAYORDER=
